<svg xmlns="http://www.w3.org/2000/svg" width="16.469" height="13.721" viewBox="0 0 16.469 13.721">
  <path id="Icon_ionic-ios-share-alt" data-name="Icon ionic-ios-share-alt" d="M20.825,12.513l-6.05-5.66a.309.309,0,0,0-.24-.1c-.189.009-.429.142-.429.343V9.931a.183.183,0,0,1-.154.176c-6.016.922-8.55,5.424-9.446,10.1-.034.184.214.356.33.21a10.935,10.935,0,0,1,9.09-4.605.212.212,0,0,1,.18.206V18.8a.368.368,0,0,0,.622.227l6.093-5.759a.473.473,0,0,0,.15-.36A.574.574,0,0,0,20.825,12.513Z" transform="translate(-4.502 -6.75)"/>
</svg>
