<svg id="Layer_1" enable-background="new 0 0 510 510" height="512" viewBox="0 0 510 510" width="512" xmlns="http://www.w3.org/2000/svg"><g><path d="m255 0c-140.932 0-255 114.05-255 255 0 140.93 114.049 255 255 255 140.929 0 255-114.049 255-255 0-140.929-114.049-255-255-255zm0 480c-124.065 0-225-100.935-225-225s100.935-225 225-225 225 100.935 225 225-100.935 225-225 225z"/><path d="m300 255v-94.855c35.443 16.882 60 53.053 60 94.855h30c0-58.667-37.62-108.704-90-127.278v-52.722h-30v45.838c-9.713-1.079-19.606-1.154-30 0v-45.838h-30v52.722c-99.289 35.208-122.002 165.759-39.748 232.278h-50.252v30h270v-30h-135c-57.898 0-105-47.103-105-105 0-41.802 24.557-77.973 60-94.855v94.855h30v-103.924c9.977-1.434 20.006-1.436 30 0v103.924z"/></g></svg>